<svg width="92" height="92" viewBox="0 0 92 92" fill="none" xmlns="http://www.w3.org/2000/svg">
<rect x="0.5" y="0.5" width="91" height="91" rx="3.5" fill="#F7FAFF" stroke="#538CEE" stroke-dasharray="2 2"/>
<path fill-rule="evenodd" clip-rule="evenodd" d="M54 32H53.8V36.8C53.8 38.3 52.6 39.5 51.1 39.5H40.7C39.2 39.5 38 38.3 38 36.8V30.3C38 28.9 39.1 27.8 40.6 27.8H41C41.3 27.8 41.6 27.6 41.7 27.4L42.7 25.3C42.9 24.9 43.3 24.6 43.8 24.6H46.2C46.7 24.6 47.1 24.9 47.3 25.3L48.3 27.4C48.4 27.7 48.7 27.8 49 27.8H49.5V26.7C49.5 26.5 49.4 26.2 49.3 26L48.7 24.7C48.3 23.6 47.3 23 46.2 23H43.8C42.7 23 41.8 23.6 41.3 24.6L40.5 26.3C38.3 26.3 36.5 28.1 36.5 30.3V36.8C36.5 39.1 38.4 41 40.7 41H51C53.3 41 55.2 39.1 55.2 36.8V32H54ZM45.7 28.8C43.2 28.8 41.2 30.8 41.2 33.2C41.2 35.6 43.2 37.6 45.7 37.6C48.2 37.6 50.2 35.6 50.2 33.2C50.3 30.7 48.2 28.8 45.7 28.8ZM45.7 36C44 36 42.7 34.7 42.7 33.1C42.7 31.5 44 30.2 45.7 30.2C47.4 30.2 48.7 31.5 48.7 33.1C48.7 34.7 47.4 36 45.7 36ZM54.7 26.8H56.7C57.2 26.8 57.5 27.1 57.5 27.6C57.5 28.1 57.1 28.4 56.7 28.4H54.7V30.4C54.7 30.9 54.4 31.2 53.9 31.2C53.4 31.2 53.1 30.8 53.1 30.4V28.4H51.1C50.6 28.4 50.3 28.1 50.3 27.6C50.3 27.1 50.7 26.8 51.1 26.8H53.1V24.8C53.1 24.3 53.4 24 53.9 24C54.4 24 54.7 24.4 54.7 24.8V26.8Z" fill="#256FEF"/>
<path d="M12.5098 69L16.0488 60.7559H17.3965L20.9355 69H19.5938L18.873 67.3184H14.5781L13.8574 69H12.5098ZM16.7227 62.3145L15.041 66.2285H18.4043L16.7227 62.3145ZM26.8887 63.8613V60.6094H28.0605V69H26.8887V67.9219C26.6426 68.3125 26.3281 68.6152 25.9453 68.8301C25.5664 69.041 25.1445 69.1465 24.6797 69.1465C24.1445 69.1465 23.6582 69.0078 23.2207 68.7305C22.7832 68.4531 22.4414 68.0664 22.1953 67.5703C21.9453 67.0859 21.8203 66.5273 21.8203 65.8945C21.8203 65.2734 21.9434 64.7148 22.1895 64.2188C22.4355 63.7227 22.7812 63.3359 23.2266 63.0586C23.6562 62.7891 24.1406 62.6543 24.6797 62.6543C25.1445 62.6543 25.5664 62.7578 25.9453 62.9648C26.3242 63.1719 26.6387 63.4707 26.8887 63.8613ZM24.9668 68.1094C25.3301 68.1094 25.6582 68.0156 25.9512 67.8281C26.2441 67.6406 26.4766 67.375 26.6484 67.0312C26.8086 66.668 26.8887 66.2891 26.8887 65.8945C26.8887 65.4727 26.8066 65.0938 26.6426 64.7578C26.4824 64.418 26.2559 64.1523 25.9629 63.9609C25.6621 63.7773 25.3301 63.6855 24.9668 63.6855C24.5918 63.6855 24.2559 63.7793 23.959 63.9668C23.6621 64.1543 23.4336 64.416 23.2734 64.752C23.1055 65.084 23.0215 65.4648 23.0215 65.8945C23.0215 66.3203 23.1035 66.7031 23.2676 67.043C23.4316 67.3789 23.6621 67.6387 23.959 67.8223C24.2559 68.0137 24.5918 68.1094 24.9668 68.1094ZM34.6348 63.8613V60.6094H35.8066V69H34.6348V67.9219C34.3887 68.3125 34.0742 68.6152 33.6914 68.8301C33.3125 69.041 32.8906 69.1465 32.4258 69.1465C31.8906 69.1465 31.4043 69.0078 30.9668 68.7305C30.5293 68.4531 30.1875 68.0664 29.9414 67.5703C29.6914 67.0859 29.5664 66.5273 29.5664 65.8945C29.5664 65.2734 29.6895 64.7148 29.9355 64.2188C30.1816 63.7227 30.5273 63.3359 30.9727 63.0586C31.4023 62.7891 31.8867 62.6543 32.4258 62.6543C32.8906 62.6543 33.3125 62.7578 33.6914 62.9648C34.0703 63.1719 34.3848 63.4707 34.6348 63.8613ZM32.7129 68.1094C33.0762 68.1094 33.4043 68.0156 33.6973 67.8281C33.9902 67.6406 34.2227 67.375 34.3945 67.0312C34.5547 66.668 34.6348 66.2891 34.6348 65.8945C34.6348 65.4727 34.5527 65.0938 34.3887 64.7578C34.2285 64.418 34.002 64.1523 33.709 63.9609C33.4082 63.7773 33.0762 63.6855 32.7129 63.6855C32.3379 63.6855 32.002 63.7793 31.7051 63.9668C31.4082 64.1543 31.1797 64.416 31.0195 64.752C30.8516 65.084 30.7676 65.4648 30.7676 65.8945C30.7676 66.3203 30.8496 66.7031 31.0137 67.043C31.1777 67.3789 31.4082 67.6387 31.7051 67.8223C32.002 68.0137 32.3379 68.1094 32.7129 68.1094ZM44.4785 62.6543C45.0137 62.6543 45.5 62.791 45.9375 63.0645C46.375 63.3379 46.7168 63.7207 46.9629 64.2129C47.2129 64.6973 47.3379 65.2578 47.3379 65.8945C47.3379 66.5078 47.2148 67.0625 46.9688 67.5586C46.7227 68.0547 46.3809 68.4434 45.9434 68.7246C45.4941 69.0059 45.0059 69.1465 44.4785 69.1465C44.0137 69.1465 43.5898 69.041 43.207 68.8301C42.8281 68.6152 42.5156 68.3125 42.2695 67.9219V71.0625H41.0977V62.7949H42.2695V63.8613C42.5195 63.4707 42.834 63.1719 43.2129 62.9648C43.5918 62.7578 44.0137 62.6543 44.4785 62.6543ZM44.1914 68.1094C44.5703 68.1094 44.9062 68.0156 45.1992 67.8281C45.4961 67.6406 45.7285 67.375 45.8965 67.0312C46.0566 66.6797 46.1367 66.3008 46.1367 65.8945C46.1367 65.4727 46.0547 65.0938 45.8906 64.7578C45.7266 64.418 45.4961 64.1523 45.1992 63.9609C44.8984 63.7773 44.5625 63.6855 44.1914 63.6855C43.8242 63.6855 43.4941 63.7793 43.2012 63.9668C42.9121 64.1543 42.6855 64.416 42.5215 64.752C42.3535 65.0879 42.2695 65.4688 42.2695 65.8945C42.2695 66.3164 42.3516 66.6973 42.5156 67.0371C42.6836 67.377 42.9141 67.6387 43.207 67.8223C43.4922 68.0137 43.8203 68.1094 44.1914 68.1094ZM51.9375 62.6543C52.3867 62.6543 52.7891 62.7559 53.1445 62.959C53.5039 63.1582 53.7812 63.4395 53.9766 63.8027C54.168 64.1699 54.2637 64.5859 54.2637 65.0508V69H53.1035V65.2559C53.1035 64.9512 53.043 64.6797 52.9219 64.4414C52.8008 64.2031 52.6309 64.0176 52.4121 63.8848C52.1973 63.752 51.9512 63.6855 51.6738 63.6855C51.373 63.6855 51.0898 63.752 50.8242 63.8848C50.5625 64.0137 50.3535 64.1914 50.1973 64.418C50.0371 64.6484 49.957 64.8926 49.957 65.1504V69H48.7793V60.6094H49.957V63.7207C50.1562 63.4004 50.4355 63.1426 50.7949 62.9473C51.1543 62.752 51.5352 62.6543 51.9375 62.6543ZM58.916 69.1465C58.3457 69.1465 57.8086 69 57.3047 68.707C56.8047 68.4102 56.4023 68.0078 56.0977 67.5C55.793 67 55.6406 66.4648 55.6406 65.8945C55.6406 65.3242 55.7891 64.7891 56.0859 64.2891C56.3867 63.7891 56.791 63.3906 57.2988 63.0938C57.7871 62.8008 58.3262 62.6543 58.916 62.6543C59.4902 62.6543 60.0273 62.8008 60.5273 63.0938C61.0312 63.3867 61.4297 63.7832 61.7227 64.2832C62.0195 64.7559 62.168 65.293 62.168 65.8945C62.168 66.4648 62.0215 67.002 61.7285 67.5059C61.4355 68.0059 61.0391 68.4043 60.5391 68.7012C60.043 68.998 59.502 69.1465 58.916 69.1465ZM58.916 68.1094C59.2793 68.1094 59.6191 68.0098 59.9355 67.8105C60.2559 67.6113 60.5117 67.3398 60.7031 66.9961C60.8867 66.6602 60.9785 66.293 60.9785 65.8945C60.9785 65.5039 60.8848 65.1387 60.6973 64.7988C60.5137 64.4551 60.2637 64.1836 59.9473 63.9844C59.6387 63.7852 59.2949 63.6855 58.916 63.6855C58.541 63.6855 58.1934 63.7852 57.873 63.9844C57.5566 64.1797 57.3047 64.4473 57.1172 64.7871C56.9258 65.1309 56.8301 65.5 56.8301 65.8945C56.8301 66.2891 56.9238 66.6582 57.1113 67.002C57.2988 67.3418 57.5527 67.6113 57.873 67.8105C58.1855 68.0098 58.5332 68.1094 58.916 68.1094ZM66.4629 67.8867L66.8965 68.7012C66.7246 68.8418 66.5293 68.9512 66.3105 69.0293C66.0957 69.1074 65.8789 69.1465 65.6602 69.1465C65.3438 69.1465 65.0605 69.0762 64.8105 68.9355C64.5645 68.791 64.373 68.5898 64.2363 68.332C64.0957 68.0742 64.0254 67.7812 64.0254 67.4531V63.8027H63.0938V62.7949H64.0254V61.0898H65.1914V62.7949H66.6562V63.8027H65.1914V67.3652C65.1914 67.5762 65.252 67.7539 65.373 67.8984C65.498 68.0391 65.6504 68.1094 65.8301 68.1094C65.9551 68.1094 66.0742 68.0898 66.1875 68.0508C66.3047 68.0078 66.3965 67.9531 66.4629 67.8867ZM71.0449 69.1465C70.4746 69.1465 69.9375 69 69.4336 68.707C68.9336 68.4102 68.5312 68.0078 68.2266 67.5C67.9219 67 67.7695 66.4648 67.7695 65.8945C67.7695 65.3242 67.918 64.7891 68.2148 64.2891C68.5156 63.7891 68.9199 63.3906 69.4277 63.0938C69.916 62.8008 70.4551 62.6543 71.0449 62.6543C71.6191 62.6543 72.1562 62.8008 72.6562 63.0938C73.1602 63.3867 73.5586 63.7832 73.8516 64.2832C74.1484 64.7559 74.2969 65.293 74.2969 65.8945C74.2969 66.4648 74.1504 67.002 73.8574 67.5059C73.5645 68.0059 73.168 68.4043 72.668 68.7012C72.1719 68.998 71.6309 69.1465 71.0449 69.1465ZM71.0449 68.1094C71.4082 68.1094 71.748 68.0098 72.0645 67.8105C72.3848 67.6113 72.6406 67.3398 72.832 66.9961C73.0156 66.6602 73.1074 66.293 73.1074 65.8945C73.1074 65.5039 73.0137 65.1387 72.8262 64.7988C72.6426 64.4551 72.3926 64.1836 72.0762 63.9844C71.7676 63.7852 71.4238 63.6855 71.0449 63.6855C70.6699 63.6855 70.3223 63.7852 70.002 63.9844C69.6855 64.1797 69.4336 64.4473 69.2461 64.7871C69.0547 65.1309 68.959 65.5 68.959 65.8945C68.959 66.2891 69.0527 66.6582 69.2402 67.002C69.4277 67.3418 69.6816 67.6113 70.002 67.8105C70.3145 68.0098 70.6621 68.1094 71.0449 68.1094ZM77.9297 69.1465C77.4648 69.1465 76.9961 69.0645 76.5234 68.9004C76.0547 68.7363 75.6406 68.5098 75.2812 68.2207L75.8438 67.3652C76.543 67.8691 77.2422 68.1211 77.9414 68.1211C78.2969 68.1211 78.582 68.0488 78.7969 67.9043C79.0117 67.7559 79.1191 67.5605 79.1191 67.3184C79.1191 67.1582 79.0723 67.0234 78.9785 66.9141C78.8887 66.8008 78.7441 66.7012 78.5449 66.6152C78.2832 66.5137 78.0078 66.4238 77.7188 66.3457C77.1836 66.2012 76.7637 66.0488 76.459 65.8887C76.1543 65.7285 75.9336 65.541 75.7969 65.3262C75.6523 65.1113 75.5801 64.8398 75.5801 64.5117C75.5801 64.1484 75.6738 63.8262 75.8613 63.5449C76.0527 63.2598 76.3203 63.0391 76.6641 62.8828C77.0039 62.7305 77.3945 62.6543 77.8359 62.6543C78.2109 62.6543 78.5977 62.7168 78.9961 62.8418C79.3984 62.9668 79.7754 63.1426 80.127 63.3691L79.5996 64.248C78.9941 63.8652 78.4062 63.6738 77.8359 63.6738C77.5156 63.6738 77.2539 63.7422 77.0508 63.8789C76.8477 64.0117 76.7461 64.1875 76.7461 64.4062C76.7461 64.5586 76.7871 64.6855 76.8691 64.7871C76.9551 64.8848 77.0977 64.9727 77.2969 65.0508C77.4375 65.1172 77.7285 65.2168 78.1699 65.3496C78.5879 65.4824 78.8867 65.584 79.0664 65.6543C79.25 65.7246 79.4141 65.8066 79.5586 65.9004C79.7227 66.0059 79.8691 66.1348 79.998 66.2871C80.1895 66.5254 80.2852 66.8379 80.2852 67.2246C80.2852 67.5996 80.1855 67.9336 79.9863 68.2266C79.791 68.5195 79.5137 68.7461 79.1543 68.9062C78.7871 69.0664 78.3789 69.1465 77.9297 69.1465Z" fill="#256FEF"/>
</svg>
